HIERARCHY
ROOT Hips
{
	OFFSET 0.000000 97.167313 0.000000
	CHANNELS 6 Xposition Yposition Zposition Xrotation Yrotation Zrotation
	JOINT Spine
	{
		OFFSET 0.000000 13.784798 0.064400
		CHANNELS 3 Xrotation Yrotation Zrotation
		JOINT Spine1
		{
			OFFSET 0.000000 12.037903 0.404700
			CHANNELS 3 Xrotation Yrotation Zrotation
			JOINT Spine2
			{
				OFFSET 0.000000 17.795601 0.420200
				CHANNELS 3 Xrotation Yrotation Zrotation
				JOINT Neck
				{
					OFFSET 0.000000 39.131302 11.954600
					CHANNELS 3 Xrotation Yrotation Zrotation
					JOINT Head
					{
						OFFSET 0.000000 14.456192 15.627699
						CHANNELS 3 Xrotation Yrotation Zrotation
						JOINT HeadTop_End
						{
							OFFSET 0.000000 15.703506 7.603401
							CHANNELS 3 Xrotation Yrotation Zrotation
							End Site
							{
								OFFSET 0.000000 17.447403 0.000000
							}
						}
					}
				}
				JOINT LeftShoulder
				{
					OFFSET 17.399500 24.608795 1.168800
					CHANNELS 3 Xrotation Yrotation Zrotation
					JOINT LeftArm
					{
						OFFSET 18.980635 5.765305 1.818600
						CHANNELS 3 Xrotation Yrotation Zrotation
						JOINT LeftForeArm
						{
							OFFSET 49.290169 0.000000 0.000000
							CHANNELS 3 Xrotation Yrotation Zrotation
							JOINT LeftHand
							{
								OFFSET 31.562012 0.000000 0.000000
								CHANNELS 3 Xrotation Yrotation Zrotation
								JOINT LeftHandThumb1
								{
									OFFSET 6.133995 -4.388519 7.076070
									CHANNELS 3 Xrotation Yrotation Zrotation
									JOINT LeftHandThumb2
									{
										OFFSET 6.037666 -3.485840 3.485847
										CHANNELS 3 Xrotation Yrotation Zrotation
										JOINT LeftHandThumb3
										{
											OFFSET 6.496506 -3.750763 3.750761
											CHANNELS 3 Xrotation Yrotation Zrotation
											JOINT LeftHandThumb4
											{
												OFFSET 5.616882 -3.242905 3.242910
												CHANNELS 3 Xrotation Yrotation Zrotation
												End Site
												{
													OFFSET -1.254608 7.132141 0.375429
												}
											}
										}
									}
								}
								JOINT LeftHandPinky1
								{
									OFFSET 18.920792 -0.453171 -11.426712
									CHANNELS 3 Xrotation Yrotation Zrotation
									JOINT LeftHandPinky2
									{
										OFFSET 4.919586 0.000000 0.000000
										CHANNELS 3 Xrotation Yrotation Zrotation
										JOINT LeftHandPinky3
										{
											OFFSET 5.233047 0.000000 0.000000
											CHANNELS 3 Xrotation Yrotation Zrotation
											JOINT LeftHandPinky4
											{
												OFFSET 5.571716 0.000000 0.000000
												CHANNELS 3 Xrotation Yrotation Zrotation
												End Site
												{
													OFFSET -3.459808 4.342407 -0.466164
												}
											}
										}
									}
								}
								JOINT LeftHandRing1
								{
									OFFSET 22.726120 -0.094986 -6.500475
									CHANNELS 3 Xrotation Yrotation Zrotation
									JOINT LeftHandRing2
									{
										OFFSET 6.408615 0.000000 0.000000
										CHANNELS 3 Xrotation Yrotation Zrotation
										JOINT LeftHandRing3
										{
											OFFSET 6.150223 0.000000 0.000000
											CHANNELS 3 Xrotation Yrotation Zrotation
											JOINT LeftHandRing4
											{
												OFFSET 6.145386 0.000000 0.000000
												CHANNELS 3 Xrotation Yrotation Zrotation
												End Site
												{
													OFFSET -3.671402 4.923981 -0.202372
												}
											}
										}
									}
								}
								JOINT LeftHandMiddle1
								{
									OFFSET 23.373947 0.000000 0.000001
									CHANNELS 3 Xrotation Yrotation Zrotation
									JOINT LeftHandMiddle2
									{
										OFFSET 6.996567 0.000000 0.000000
										CHANNELS 3 Xrotation Yrotation Zrotation
										JOINT LeftHandMiddle3
										{
											OFFSET 7.015945 0.000000 0.000000
											CHANNELS 3 Xrotation Yrotation Zrotation
											JOINT LeftHandMiddle4
											{
												OFFSET 7.721573 0.000000 0.000000
												CHANNELS 3 Xrotation Yrotation Zrotation
												End Site
												{
													OFFSET -4.651108 6.158463 0.251582
												}
											}
										}
									}
								}
								JOINT LeftHandIndex1
								{
									OFFSET 21.310577 -0.490082 6.209344
									CHANNELS 3 Xrotation Yrotation Zrotation
									JOINT LeftHandIndex2
									{
										OFFSET 7.536453 0.000000 0.000000
										CHANNELS 3 Xrotation Yrotation Zrotation
										JOINT LeftHandIndex3
										{
											OFFSET 7.512344 0.000000 0.000000
											CHANNELS 3 Xrotation Yrotation Zrotation
											JOINT LeftHandIndex4
											{
												OFFSET 10.212402 0.000000 0.000001
												CHANNELS 3 Xrotation Yrotation Zrotation
												End Site
												{
													OFFSET -5.180801 8.690506 1.388433
												}
											}
										}
									}
								}
							}
						}
					}
				}
				JOINT RightShoulder
				{
					OFFSET -17.399500 24.608795 1.168800
					CHANNELS 3 Xrotation Yrotation Zrotation
					JOINT RightArm
					{
						OFFSET -18.980635 5.765305 1.818600
						CHANNELS 3 Xrotation Yrotation Zrotation
						JOINT RightForeArm
						{
							OFFSET -49.290169 0.000000 0.000000
							CHANNELS 3 Xrotation Yrotation Zrotation
							JOINT RightHand
							{
								OFFSET -31.562012 0.000000 0.000000
								CHANNELS 3 Xrotation Yrotation Zrotation
								JOINT RightHandThumb1
								{
									OFFSET -6.133995 -4.388519 7.076070
									CHANNELS 3 Xrotation Yrotation Zrotation
									JOINT RightHandThumb2
									{
										OFFSET -6.037666 -3.485840 3.485847
										CHANNELS 3 Xrotation Yrotation Zrotation
										JOINT RightHandThumb3
										{
											OFFSET -6.496506 -3.750763 3.750761
											CHANNELS 3 Xrotation Yrotation Zrotation
											JOINT RightHandThumb4
											{
												OFFSET -5.616882 -3.242905 3.242910
												CHANNELS 3 Xrotation Yrotation Zrotation
												End Site
												{
													OFFSET 1.254608 7.132141 0.375429
												}
											}
										}
									}
								}
								JOINT RightHandIndex1
								{
									OFFSET -21.310577 -0.490082 6.209344
									CHANNELS 3 Xrotation Yrotation Zrotation
									JOINT RightHandIndex2
									{
										OFFSET -7.536453 0.000000 0.000000
										CHANNELS 3 Xrotation Yrotation Zrotation
										JOINT RightHandIndex3
										{
											OFFSET -7.512344 0.000000 0.000000
											CHANNELS 3 Xrotation Yrotation Zrotation
											JOINT RightHandIndex4
											{
												OFFSET -10.212402 0.000000 0.000001
												CHANNELS 3 Xrotation Yrotation Zrotation
												End Site
												{
													OFFSET 5.180801 8.690506 1.388433
												}
											}
										}
									}
								}
								JOINT RightHandMiddle1
								{
									OFFSET -23.373947 0.000000 0.000001
									CHANNELS 3 Xrotation Yrotation Zrotation
									JOINT RightHandMiddle2
									{
										OFFSET -6.996567 0.000000 0.000000
										CHANNELS 3 Xrotation Yrotation Zrotation
										JOINT RightHandMiddle3
										{
											OFFSET -7.015945 0.000000 0.000000
											CHANNELS 3 Xrotation Yrotation Zrotation
											JOINT RightHandMiddle4
											{
												OFFSET -7.721573 0.000000 0.000000
												CHANNELS 3 Xrotation Yrotation Zrotation
												End Site
												{
													OFFSET 4.651108 6.158463 0.251582
												}
											}
										}
									}
								}
								JOINT RightHandRing1
								{
									OFFSET -22.726120 -0.094986 -6.500475
									CHANNELS 3 Xrotation Yrotation Zrotation
									JOINT RightHandRing2
									{
										OFFSET -6.408615 0.000000 0.000000
										CHANNELS 3 Xrotation Yrotation Zrotation
										JOINT RightHandRing3
										{
											OFFSET -6.150223 0.000000 0.000000
											CHANNELS 3 Xrotation Yrotation Zrotation
											JOINT RightHandRing4
											{
												OFFSET -6.145386 0.000000 0.000000
												CHANNELS 3 Xrotation Yrotation Zrotation
												End Site
												{
													OFFSET 3.671402 4.923981 -0.202372
												}
											}
										}
									}
								}
								JOINT RightHandPinky1
								{
									OFFSET -18.920792 -0.453171 -11.426712
									CHANNELS 3 Xrotation Yrotation Zrotation
									JOINT RightHandPinky2
									{
										OFFSET -4.919586 0.000000 0.000000
										CHANNELS 3 Xrotation Yrotation Zrotation
										JOINT RightHandPinky3
										{
											OFFSET -5.233047 0.000000 0.000000
											CHANNELS 3 Xrotation Yrotation Zrotation
											JOINT RightHandPinky4
											{
												OFFSET -5.571716 0.000000 0.000000
												CHANNELS 3 Xrotation Yrotation Zrotation
												End Site
												{
													OFFSET 3.459808 4.342407 -0.466164
												}
											}
										}
									}
								}
							}
						}
					}
				}
			}
		}
	}
	JOINT LeftUpLeg
	{
		OFFSET 19.899099 -7.885101 -3.429500
		CHANNELS 3 Xrotation Yrotation Zrotation
		JOINT LeftLeg
		{
			OFFSET 1.745560 -36.997807 10.304700
			CHANNELS 3 Xrotation Yrotation Zrotation
			JOINT LeftFoot
			{
				OFFSET -1.745558 -29.803308 -13.615400
				CHANNELS 3 Xrotation Yrotation Zrotation
				JOINT LeftToeBase
				{
					OFFSET 1.181900 -18.539904 15.226099
					CHANNELS 3 Xrotation Yrotation Zrotation
					JOINT LeftToe_End
					{
						OFFSET -0.863701 1.402801 16.534700
						CHANNELS 3 Xrotation Yrotation Zrotation
						End Site
						{
							OFFSET 0.000000 16.616566 0.000000
						}
					}
				}
			}
		}
	}
	JOINT RightUpLeg
	{
		OFFSET -19.899099 -7.885101 -3.429500
		CHANNELS 3 Xrotation Yrotation Zrotation
		JOINT RightLeg
		{
			OFFSET -1.745560 -36.997807 10.304700
			CHANNELS 3 Xrotation Yrotation Zrotation
			JOINT RightFoot
			{
				OFFSET 1.745558 -29.803308 -13.615400
				CHANNELS 3 Xrotation Yrotation Zrotation
				JOINT RightToeBase
				{
					OFFSET -1.181900 -18.539904 15.226099
					CHANNELS 3 Xrotation Yrotation Zrotation
					JOINT RightToe_End
					{
						OFFSET 0.863701 1.402801 16.534700
						CHANNELS 3 Xrotation Yrotation Zrotation
						End Site
						{
							OFFSET 0.000000 16.616566 0.000000
						}
					}
				}
			}
		}
	}
}
MOTION
Frames: 6
Frame Time: 0.033333
5.625103 78.679741 113.048698 2.769101 -22.371955 1.880384 23.500739 -6.934935 6.911044 5.234572 -2.171347 -0.037587 -0.070003 -0.411939 1.497201 -19.587579 3.309786 -5.518298 -2.079417 22.676730 -1.304463 -0.000001 -0.000000 0.000000 6.218564 -21.641784 5.113749 -25.793894 -8.932348 -73.359059 -1.772741 -61.947903 -12.410542 -41.839956 -1.371113 10.057842 -7.471940 1.860691 -7.166906 30.987042 27.310501 -4.510898 83.254637 13.297939 -10.940302 -0.000005 -0.000000 -0.000003 -17.080792 22.136850 -87.150106 0.011718 0.023170 -58.127287 0.004932 0.007742 -26.297178 -0.000001 0.000001 -0.000007 -6.436877 23.133437 -89.739820 0.012866 0.975930 -51.002990 6.771111 8.412935 -40.136989 -0.000004 0.000000 0.000003 1.623349 16.580942 -84.691279 0.018012 0.022026 -72.884867 -1.296735 -0.092188 -19.943290 -0.000001 -0.000002 0.000004 -4.707166 11.366731 -75.716540 -0.816401 3.074005 -46.874639 -4.740629 0.379130 -78.699489 -0.000001 0.000003 0.000002 10.174516 30.626531 -27.576040 -44.354224 19.409325 80.891050 -2.876828 53.978483 -3.676804 -20.835314 9.947459 12.145786 9.347184 2.810570 -11.364508 16.169097 -43.265994 15.843580 32.491777 -44.566797 5.661131 -0.000000 -0.000003 -0.000000 17.076786 -0.396523 31.924352 -0.204383 -0.284207 112.811557 1.553133 -1.173009 33.344550 -0.000000 -0.000001 -0.000001 9.205484 -5.035900 102.738094 0.014998 -0.019195 61.018506 1.871343 0.346195 31.443773 0.000000 -0.000000 -0.000007 5.569150 -8.935224 107.329108 0.547964 -0.005787 41.263707 0.739134 0.837835 51.122224 0.000000 0.000001 -0.000005 6.511228 -17.148209 98.228017 0.007393 -0.015733 43.845764 0.011238 -0.024785 57.754550 -0.000002 -0.000004 -0.000002 5.313821 9.147767 -7.125060 41.988499 0.929076 -6.313714 -38.882525 -2.566612 9.009846 -16.022903 -5.871824 0.788926 0.000000 -0.000002 -0.000000 -55.264973 -3.210707 4.699930 30.552488 -15.847383 5.484554 2.335289 0.931547 1.377750 -3.204398 1.856734 -1.332494 0.000001 0.000001 -0.000001 
5.227130 78.519028 117.531296 2.945931 -20.994104 1.214359 22.205558 -7.590002 8.109089 5.270524 -2.406915 0.106139 -0.044922 -0.658326 1.621454 -19.404817 3.488498 -5.615994 -1.212506 22.723046 -1.531955 0.000001 -0.000000 -0.000000 6.188544 -22.100245 5.203242 -24.659011 -8.329069 -74.697749 -1.684228 -61.710609 -12.243427 -41.290280 -1.595244 10.053956 -7.471939 1.860693 -7.166915 30.987042 27.310505 -4.510897 83.254637 13.297938 -10.940302 0.000005 0.000002 0.000000 -17.080789 22.136848 -87.150106 0.011715 0.023168 -58.127280 0.004932 0.007743 -26.297178 -0.000001 0.000001 0.000001 -6.436875 23.133437 -89.739827 0.012866 0.975930 -51.002983 6.771109 8.412940 -40.136992 0.000001 0.000001 0.000002 1.623344 16.580940 -84.691279 0.018012 0.022032 -72.884874 -1.296733 -0.092186 -19.943288 -0.000000 -0.000003 0.000004 -4.707164 11.366727 -75.716547 -0.816403 3.074002 -46.874642 -4.740629 0.379128 -78.699482 -0.000003 0.000003 0.000001 10.042590 30.837802 -27.260846 -42.524297 18.423715 81.010886 -2.755920 54.810127 -2.912455 -20.436442 9.744767 12.099987 9.347186 2.810568 -11.364508 16.169097 -43.265994 15.843583 32.491784 -44.566793 5.661134 0.000002 0.000001 0.000003 17.076788 -0.396526 31.924355 -0.204383 -0.284217 112.811557 1.553133 -1.173009 33.344550 -0.000002 -0.000001 0.000001 9.205482 -5.035905 102.738094 0.014997 -0.019194 61.018506 1.871343 0.346192 31.443780 0.000000 0.000001 -0.000009 5.569148 -8.935225 107.329108 0.547965 -0.005784 41.263710 0.739132 0.837835 51.122221 -0.000001 -0.000000 -0.000005 6.511227 -17.148209 98.228017 0.007392 -0.015732 43.845764 0.011240 -0.024787 57.754550 -0.000002 0.000001 0.000006 8.061729 9.565975 -7.093338 41.297035 -0.331504 -5.705679 -37.096625 -3.320513 9.966448 -20.637155 -6.938680 0.971685 -0.000000 -0.000002 -0.000000 -51.653514 -7.746700 5.752364 26.386943 -14.308574 5.813709 10.625193 1.464990 -11.884186 -4.503464 2.211846 -2.742799 -0.000000 0.000005 0.000001 
4.618707 78.133194 122.584137 3.187006 -20.195980 0.501048 20.958173 -7.844704 9.286400 5.334058 -2.541640 0.281482 0.006574 -0.814717 1.784317 -19.273209 3.732386 -5.878412 -0.126578 22.756882 -1.884136 -0.000000 0.000000 -0.000000 6.159443 -22.434675 5.300529 -23.467652 -7.753989 -76.595667 -1.801469 -61.690576 -11.633613 -40.331816 -1.379304 9.694598 -7.471936 1.860690 -7.166916 30.987052 27.310498 -4.510895 83.254644 13.297938 -10.940306 0.000008 0.000001 -0.000001 -17.080783 22.136845 -87.150113 0.011718 0.023172 -58.127280 0.004932 0.007737 -26.297171 -0.000003 0.000000 -0.000002 -6.436871 23.133436 -89.739834 0.012864 0.975934 -51.002983 6.771112 8.412937 -40.136989 -0.000001 0.000002 0.000002 1.623352 16.580935 -84.691279 0.018012 0.022032 -72.884867 -1.296733 -0.092189 -19.943285 0.000003 0.000001 0.000001 -4.707158 11.366729 -75.716540 -0.816404 3.074003 -46.874635 -4.740628 0.379126 -78.699489 -0.000003 -0.000000 0.000001 9.968403 31.163141 -27.136424 -40.423795 17.292658 81.109152 -2.649314 56.157856 -2.264545 -19.945559 9.129419 11.934879 9.347182 2.810568 -11.364511 16.169100 -43.265990 15.843587 32.491787 -44.566790 5.661134 0.000002 0.000000 0.000002 17.076788 -0.396527 31.924349 -0.204384 -0.284213 112.811557 1.553135 -1.173009 33.344546 -0.000000 -0.000001 -0.000002 9.205483 -5.035904 102.738087 0.014998 -0.019195 61.018506 1.871343 0.346193 31.443780 -0.000001 -0.000000 -0.000007 5.569148 -8.935225 107.329108 0.547964 -0.005789 41.263707 0.739133 0.837831 51.122228 0.000000 0.000002 0.000000 6.511224 -17.148211 98.228024 0.007391 -0.015734 43.845768 0.011236 -0.024787 57.754550 0.000000 -0.000000 0.000006 9.745581 10.721351 -7.109761 42.273188 -1.683490 -4.500746 -32.876781 -5.394078 11.805559 -27.746276 -7.879447 3.801224 -0.000000 -0.000004 -0.000001 -49.766524 -10.854757 5.807631 26.968295 -13.624987 5.784709 14.815027 1.502274 -17.701907 -4.430395 2.557735 -3.719648 -0.000000 -0.000002 -0.000000 
4.192862 77.353889 127.102234 3.112242 -20.298299 -0.158476 19.981677 -7.764337 10.182249 5.413456 -2.548464 0.446567 0.073745 -0.851255 1.947949 -19.210054 3.987728 -6.244519 0.831095 22.789628 -2.274580 0.000000 0.000000 0.000000 6.134997 -22.589080 5.405749 -22.582718 -7.370292 -78.424184 -2.102268 -61.302444 -10.452332 -39.627374 -0.733081 8.660945 -7.471937 1.860690 -7.166914 30.987042 27.310503 -4.510894 83.254644 13.297939 -10.940299 0.000001 0.000001 -0.000002 -17.080792 22.136850 -87.150113 0.011716 0.023172 -58.127287 0.004929 0.007737 -26.297174 -0.000000 -0.000002 -0.000001 -6.436876 23.133437 -89.739827 0.012867 0.975928 -51.002983 6.771111 8.412940 -40.136989 -0.000001 0.000001 -0.000000 1.623345 16.580940 -84.691279 0.018012 0.022031 -72.884867 -1.296736 -0.092186 -19.943283 -0.000001 0.000001 0.000004 -4.707162 11.366728 -75.716547 -0.816394 3.074000 -46.874639 -4.740629 0.379133 -78.699482 -0.000007 0.000001 0.000001 9.948099 31.545399 -27.170740 -39.575892 16.814811 81.497701 -2.569571 55.802273 -2.067383 -19.848721 8.749074 12.095772 9.347180 2.810569 -11.364507 16.169100 -43.266001 15.843587 32.491780 -44.566786 5.661137 0.000001 0.000000 -0.000001 17.076788 -0.396526 31.924352 -0.204378 -0.284212 112.811557 1.553132 -1.173010 33.344553 -0.000001 0.000000 -0.000001 9.205483 -5.035904 102.738094 0.014996 -0.019193 61.018506 1.871342 0.346194 31.443773 0.000001 0.000003 -0.000001 5.569149 -8.935223 107.329108 0.547964 -0.005788 41.263710 0.739134 0.837840 51.122221 -0.000001 -0.000001 -0.000003 6.511227 -17.148209 98.228017 0.007392 -0.015732 43.845764 0.011240 -0.024787 57.754550 0.000002 0.000002 0.000004 12.886229 11.601707 -7.908764 42.276091 -0.733040 -2.742261 -29.677285 -7.828460 11.863396 -30.611952 -11.125832 5.379905 -0.000001 0.000002 0.000000 -49.353622 -12.761396 5.882166 31.398868 -11.021567 5.507023 13.283197 1.522905 -19.060613 -3.671057 1.905795 -3.048072 -0.000000 0.000001 0.000000 
4.207018 76.084923 130.238449 2.719494 -20.990126 -0.815554 19.401584 -7.412523 10.804431 5.493831 -2.440550 0.565067 0.144756 -0.770689 2.075513 -19.173313 4.174279 -6.580185 1.358156 22.806108 -2.468744 -0.000000 -0.000000 -0.000000 6.120243 -22.538654 5.520375 -22.377418 -7.312668 -79.047193 -2.196580 -60.784326 -9.825272 -40.160317 0.074362 7.958237 -7.471938 1.860685 -7.166913 30.987049 27.310501 -4.510899 83.254644 13.297940 -10.940305 0.000002 0.000002 -0.000002 -17.080792 22.136848 -87.150113 0.011720 0.023168 -58.127287 0.004933 0.007739 -26.297167 -0.000000 -0.000000 0.000003 -6.436870 23.133436 -89.739827 0.012867 0.975931 -51.002983 6.771112 8.412940 -40.136992 -0.000006 -0.000001 0.000003 1.623349 16.580938 -84.691279 0.018012 0.022032 -72.884867 -1.296724 -0.092191 -19.943285 -0.000000 0.000001 0.000004 -4.707165 11.366724 -75.716547 -0.816402 3.074004 -46.874635 -4.740630 0.379131 -78.699489 -0.000005 0.000001 0.000002 9.957458 31.853335 -27.260031 -40.111659 17.073782 81.888443 -2.567508 53.926287 -2.315346 -20.421547 8.520445 12.579728 9.347181 2.810564 -11.364508 16.169097 -43.265994 15.843589 32.491773 -44.566790 5.661131 0.000000 -0.000002 -0.000002 17.076786 -0.396530 31.924355 -0.204380 -0.284213 112.811557 1.553134 -1.173008 33.344553 -0.000000 -0.000001 -0.000001 9.205482 -5.035907 102.738094 0.014997 -0.019194 61.018513 1.871342 0.346195 31.443773 0.000000 0.000000 -0.000009 5.569148 -8.935227 107.329108 0.547962 -0.005787 41.263707 0.739135 0.837834 51.122224 0.000000 -0.000001 -0.000002 6.511225 -17.148214 98.228017 0.007393 -0.015732 43.845764 0.011237 -0.024787 57.754550 0.000001 0.000002 0.000001 9.907095 10.640837 -2.940422 49.596859 -6.020836 -4.754122 -23.606894 -0.754436 -1.722798 -33.791220 -18.444569 12.725857 -0.000000 0.000000 -0.000000 -50.372345 -12.614687 6.283259 37.613674 -10.119786 4.611775 9.065314 1.972816 -17.625824 -3.277450 1.335977 -2.268389 0.000000 0.000001 0.000000 
3.836356 74.886925 133.602570 2.595785 -21.641955 -1.074594 19.161606 -6.767409 10.872062 5.560956 -2.262758 0.616691 0.209380 -0.604669 2.142976 -19.136848 4.224123 -6.779043 1.370723 22.742040 -2.305648 0.000001 -0.000000 -0.000000 6.120951 -22.291996 5.637015 -21.656703 -6.857026 -79.187560 -2.575819 -62.771911 -9.985621 -40.186094 2.182538 8.130525 -7.471943 1.860685 -7.166912 30.987045 27.310503 -4.510893 83.254637 13.297940 -10.940301 -0.000003 0.000001 -0.000002 -17.080795 22.136846 -87.150106 0.011718 0.023169 -58.127280 0.004933 0.007738 -26.297167 0.000001 -0.000000 -0.000000 -6.436879 23.133434 -89.739827 0.012868 0.975924 -51.002986 6.771113 8.412937 -40.136989 -0.000000 0.000002 -0.000002 1.623340 16.580936 -84.691279 0.018014 0.022034 -72.884867 -1.296733 -0.092186 -19.943282 0.000001 0.000001 0.000004 -4.707162 11.366725 -75.716540 -0.816397 3.074002 -46.874635 -4.740629 0.379127 -78.699489 -0.000003 -0.000000 0.000001 9.969717 31.993754 -27.311270 -39.971029 16.991378 81.957783 -2.619103 54.895043 -2.593991 -20.787293 6.984961 12.234438 9.347183 2.810567 -11.364508 16.169098 -43.265994 15.843587 32.491780 -44.566790 5.661130 0.000001 0.000000 -0.000000 17.076786 -0.396524 31.924352 -0.204385 -0.284213 112.811564 1.553136 -1.173010 33.344546 -0.000000 -0.000003 -0.000002 9.205481 -5.035904 102.738087 0.014997 -0.019192 61.018506 1.871344 0.346196 31.443780 0.000001 0.000001 -0.000008 5.569148 -8.935224 107.329108 0.547966 -0.005790 41.263714 0.739136 0.837836 51.122224 0.000000 0.000001 -0.000003 6.511227 -17.148208 98.228017 0.007393 -0.015733 43.845764 0.011244 -0.024794 57.754550 0.000001 0.000000 -0.000003 5.037595 12.531234 -1.017119 61.607446 -8.698552 -4.167955 -21.046439 0.384253 -3.417950 -26.003813 -25.252087 21.714440 -0.000002 0.000001 -0.000001 -51.400213 -10.884029 6.741177 44.253687 -10.748951 3.910811 3.919776 2.344305 -15.325666 -2.949100 0.919409 -1.608193 0.000000 -0.000002 0.000000 
